<svg xmlns="http://www.w3.org/2000/svg" viewBox="0 0 420 520" role="img" aria-labelledby="title desc">
  <title id="title">Professional profile placeholder</title>
  <desc id="desc">A clean illustrated profile placeholder for the portfolio website.</desc>
  <defs>
    <linearGradient id="bg" x1="0" x2="1" y1="0" y2="1">
      <stop offset="0" stop-color="#0f766e"/>
      <stop offset="0.52" stop-color="#e5ad32"/>
      <stop offset="1" stop-color="#e76f51"/>
    </linearGradient>
    <linearGradient id="shirt" x1="0" x2="1" y1="0" y2="1">
      <stop offset="0" stop-color="#151515"/>
      <stop offset="1" stop-color="#3b3b3b"/>
    </linearGradient>
  </defs>
  <rect width="420" height="520" fill="#fbfaf7"/>
  <rect x="18" y="18" width="384" height="484" rx="18" fill="url(#bg)" opacity="0.16"/>
  <path d="M0 386c76-42 148-53 216-32s136 72 204 42v124H0Z" fill="#0f766e" opacity="0.14"/>
  <circle cx="210" cy="172" r="84" fill="#e7c2a6"/>
  <path d="M126 163c8-71 52-109 117-92 43 11 68 44 66 90-32-18-71-28-116-28-25 0-47 10-67 30Z" fill="#151515"/>
  <path d="M150 252c37 30 82 30 121 0v54h-121Z" fill="#d7aa8e"/>
  <path d="M104 435c10-77 52-129 106-129s96 52 106 129v67H104Z" fill="url(#shirt)"/>
  <path d="M164 316l46 58 47-58c-26 19-61 19-93 0Z" fill="#ffffff"/>
  <path d="M161 373h98l-31 129h-36Z" fill="#0f766e"/>
  <circle cx="176" cy="177" r="7" fill="#151515"/>
  <circle cx="244" cy="177" r="7" fill="#151515"/>
  <path d="M185 217c17 14 34 14 51 0" fill="none" stroke="#151515" stroke-linecap="round" stroke-width="8"/>
  <text x="210" y="478" text-anchor="middle" font-family="Inter, Arial, sans-serif" font-size="28" font-weight="800" fill="#ffffff">YOUR PHOTO</text>
</svg>
